<svg version="1.1" baseProfile="full" role="img" width="45" height="45" viewBox="0 0 45 45" xmlns="http://www.w3.org/2000/svg">
  <title>Github</title>
  <path d="M22.5 10C20.8585 10 19.233 10.3233 17.7165 10.9515C16.1999 11.5797 14.8219 12.5004 13.6612 13.6612C11.317 16.0054 10 19.1848 10 22.5C10 28.025 13.5875 32.7125 18.55 34.375C19.175 34.475 19.375 34.0875 19.375 33.75C19.375 33.4625 19.375 32.675 19.375 31.6375C15.9125 32.3875 15.175 29.9625 15.175 29.9625C14.6 28.5125 13.7875 28.125 13.7875 28.125C12.65 27.35 13.875 27.375 13.875 27.375C15.125 27.4625 15.7875 28.6625 15.7875 28.6625C16.875 30.5625 18.7125 30 19.425 29.7C19.5375 28.8875 19.8625 28.3375 20.2125 28.025C17.4375 27.7125 14.525 26.6375 14.525 21.875C14.525 20.4875 15 19.375 15.8125 18.4875C15.6875 18.175 15.25 16.875 15.9375 15.1875C15.9375 15.1875 16.9875 14.85 19.375 16.4625C20.3625 16.1875 21.4375 16.05 22.5 16.05C23.5625 16.05 24.6375 16.1875 25.625 16.4625C28.0125 14.85 29.0625 15.1875 29.0625 15.1875C29.75 16.875 29.3125 18.175 29.1875 18.4875C30 19.375 30.475 20.4875 30.475 21.875C30.475 26.65 27.55 27.7 24.7625 28.0125C25.2125 28.4 25.625 29.1625 25.625 30.325V33.75C25.625 34.0875 25.825 34.4875 26.4625 34.375C31.425 32.7 35 28.025 35 22.5C35 20.8585 34.6767 19.233 34.0485 17.7165C33.4203 16.1999 32.4996 14.8219 31.3388 13.6612C30.1781 12.5004 28.8001 11.5797 27.2835 10.9515C25.767 10.3233 24.1415 10 22.5 10V10Z" />
</svg>