<svg id="svg-footer__linkedin-icon" viewBox="0 0 45 45">
  <title>Linkedin</title>
  <path d="M16.4269 33.9108H11.0889V16.1172H16.4269V33.9108ZM35.9999 33.9108H30.6618V24.4054C30.6618 21.9286 29.7793 20.6955 28.0301 20.6955C26.644 20.6955 25.765 21.3859 25.3237 22.7684V33.9108H19.9857C19.9857 33.9108 20.0568 17.8965 19.9857 16.1172H24.1992L24.5248 19.6759H24.6351C25.7294 17.8965 27.4785 16.6901 29.8771 16.6901C31.701 16.6901 33.1761 17.1973 34.3024 18.4713C35.4358 19.7471 35.9999 21.4588 35.9999 23.8627V33.9108Z" />
  <path d="M13.758 14.3381C15.2812 14.3381 16.516 13.1431 16.516 11.669C16.516 10.195 15.2812 9 13.758 9C12.2348 9 11 10.195 11 11.669C11 13.1431 12.2348 14.3381 13.758 14.3381Z"/>
</svg>