<svg width="auto" height="auto" viewBox="0 0 949 193" fill="none" xmlns="http://www.w3.org/2000/svg" >
  <path d="M116.018 38L155 99H80L116.018 38Z" fill="#505050"/>
  <circle cx="54" cy="114" r="34" fill="#505050"/>
  <circle cx="142.5" cy="96.5" r="17.5" fill="#262626"/>
  <ellipse cx="82" cy="87.5" rx="11" ry="9.5" fill="white"/>
  <path d="M127.5 97H66C82.7184 66.5655 116.5 11 116.5 11L144 52.7542" stroke="#262626" stroke-width="11" stroke-linecap="round"/>
  <path d="M101 113.5C101 87.2665 79.7335 66 53.5 66C27.2665 66 6 87.2665 6 113.5C6 139.734 27.2665 161 53.5 161C79.15 161 79.15 148.175 79.15 148.175" stroke="#262626" stroke-width="11" stroke-linecap="round"/>
  <path d="M176.158 105V97.6309L183.767 96.1953V44.1807L176.158 42.7451V35.3281H208.362C213.594 35.3281 218.06 36.1416 221.761 37.7686C225.461 39.3636 228.285 41.6605 230.23 44.6592C232.176 47.6579 233.149 51.2786 233.149 55.5215C233.149 59.6048 232.176 63.1618 230.23 66.1924C228.316 69.223 225.621 71.5837 222.144 73.2744C218.698 74.9333 214.647 75.7946 209.989 75.8584L195.825 76.002V96.1953L203.434 97.6309V105H176.158ZM221.474 105L208.171 72.9395L219.464 71.0732L230.757 96.3867L236.212 97.5352V105H221.474ZM195.825 66.623H207.836C212.366 66.623 215.715 65.7139 217.885 63.8955C220.054 62.0452 221.139 59.3656 221.139 55.8564C221.139 52.443 220.086 49.7314 217.98 47.7217C215.875 45.68 212.669 44.6592 208.362 44.6592H195.825V66.623ZM242.768 105V97.6309L249.945 96.1953V62.0771L242.337 60.6416V53.2246H262.004V96.1953L269.134 97.6309V105H242.768ZM249.467 41.501V30.3516H262.004V41.501H249.467ZM298.562 106.005C293.714 106.005 289.503 104.904 285.93 102.703C282.389 100.47 279.645 97.4076 277.699 93.5156C275.785 89.5918 274.828 85.0778 274.828 79.9736V78.2988C274.828 73.2904 275.785 68.8242 277.699 64.9004C279.613 60.9766 282.341 57.8981 285.882 55.665C289.455 53.4001 293.666 52.2676 298.515 52.2676C302.949 52.2676 306.809 52.9854 310.095 54.4209C313.381 55.8245 316.076 57.5791 318.182 59.6846L318.229 73.5137H309.042L307.271 64.374C306.378 63.4489 305.246 62.7152 303.874 62.1729C302.502 61.5986 301.003 61.3115 299.376 61.3115C296.728 61.3115 294.463 62.0293 292.581 63.4648C290.731 64.9004 289.311 66.8942 288.322 69.4463C287.365 71.9665 286.887 74.9173 286.887 78.2988V79.9736C286.887 83.6104 287.381 86.6729 288.37 89.1611C289.359 91.6494 290.731 93.5316 292.485 94.8076C294.272 96.0837 296.313 96.7217 298.61 96.7217C301.386 96.7217 303.635 95.972 305.357 94.4727C307.112 92.9733 308.26 90.8997 308.803 88.252H319.234L319.378 88.5391C318.995 91.9206 317.99 94.9352 316.363 97.583C314.768 100.199 312.503 102.257 309.568 103.756C306.665 105.255 302.997 106.005 298.562 106.005ZM343.591 106.005C338.327 106.005 334.228 104.649 331.293 101.938C328.358 99.2259 326.891 95.4935 326.891 90.7402C326.891 87.4863 327.784 84.6312 329.57 82.1748C331.357 79.7184 333.973 77.8044 337.418 76.4326C340.863 75.029 345.042 74.3271 349.955 74.3271H357.851V69.9727C357.851 67.2292 357.021 65.0439 355.362 63.417C353.735 61.79 351.359 60.9766 348.232 60.9766C346.446 60.9766 344.867 61.1999 343.495 61.6465C342.123 62.0612 340.895 62.6673 339.811 63.4648L338.71 70.4512H329.857L329.762 57.6748C332.314 56.016 335.153 54.708 338.279 53.751C341.406 52.762 344.883 52.2676 348.711 52.2676C355.283 52.2676 360.451 53.8148 364.215 56.9092C368.011 59.9717 369.909 64.374 369.909 70.1162V92.9414C369.909 93.6432 369.909 94.3291 369.909 94.999C369.941 95.6689 369.989 96.3229 370.053 96.9609L375.316 97.6309V105H359.573C359.254 103.883 358.951 102.799 358.664 101.746C358.409 100.693 358.217 99.6406 358.09 98.5879C356.367 100.757 354.278 102.544 351.821 103.947C349.397 105.319 346.653 106.005 343.591 106.005ZM346.318 96.6738C348.743 96.6738 351.008 96.1156 353.113 94.999C355.219 93.8506 356.798 92.415 357.851 90.6924V82.0312H349.812C346.207 82.0312 343.479 82.8766 341.629 84.5674C339.811 86.2262 338.901 88.1722 338.901 90.4053C338.901 92.415 339.539 93.9622 340.815 95.0469C342.091 96.1315 343.926 96.6738 346.318 96.6738ZM381.776 105V97.6309L388.954 96.1953V62.0771L381.394 60.6416V53.2246H400.056L400.678 59.7324L400.773 60.7852C402.145 58.0417 403.82 55.9362 405.798 54.4688C407.808 53.0013 410.152 52.2676 412.832 52.2676C413.725 52.2676 414.666 52.3473 415.655 52.5068C416.676 52.6663 417.506 52.8418 418.144 53.0332L416.756 64.1826L410.009 63.7998C407.808 63.6722 405.989 64.1029 404.554 65.0918C403.15 66.0807 401.97 67.4525 401.013 69.207V96.1953L408.19 97.6309V105H381.776ZM442.213 106.005C438.034 106.005 434.461 104.952 431.494 102.847C428.527 100.741 426.246 97.8063 424.651 94.042C423.088 90.2458 422.307 85.8275 422.307 80.7871V79.7822C422.307 74.2633 423.088 69.4463 424.651 65.3311C426.246 61.2158 428.527 58.0098 431.494 55.7129C434.493 53.416 438.05 52.2676 442.165 52.2676C445.132 52.2676 447.716 52.8418 449.917 53.9902C452.15 55.1068 454.064 56.7178 455.659 58.8232V39.2041L448.051 37.7686V30.3516H455.659H467.718V96.1953L474.896 97.6309V105H457.286L456.329 98.7314C454.702 101.124 452.708 102.942 450.348 104.187C448.019 105.399 445.307 106.005 442.213 106.005ZM445.61 96.4824C447.907 96.4824 449.885 95.988 451.544 94.999C453.203 93.9782 454.575 92.5107 455.659 90.5967V67.7715C454.606 65.9212 453.235 64.4697 451.544 63.417C449.885 62.3324 447.939 61.79 445.706 61.79C443.09 61.79 440.937 62.5557 439.246 64.0869C437.587 65.5863 436.359 67.6917 435.562 70.4033C434.764 73.083 434.365 76.2093 434.365 79.7822V80.7871C434.365 85.5723 435.243 89.3844 436.997 92.2236C438.784 95.0628 441.655 96.4824 445.61 96.4824ZM504.133 106.005C499.156 106.005 494.882 104.888 491.309 102.655C487.736 100.422 484.992 97.3278 483.078 93.3721C481.164 89.3844 480.207 84.8066 480.207 79.6387V78.6338C480.207 73.4977 481.164 68.9518 483.078 64.9961C484.992 61.0404 487.736 57.93 491.309 55.665C494.882 53.4001 499.124 52.2676 504.037 52.2676C509.014 52.2676 513.288 53.4001 516.861 55.665C520.434 57.8981 523.178 60.9925 525.092 64.9482C527.006 68.904 527.963 73.4658 527.963 78.6338V79.6387C527.963 84.8066 527.006 89.3844 525.092 93.3721C523.178 97.3278 520.434 100.422 516.861 102.655C513.32 104.888 509.077 106.005 504.133 106.005ZM504.133 96.7217C506.812 96.7217 509.014 96.0039 510.736 94.5684C512.491 93.1009 513.799 91.0911 514.66 88.5391C515.521 85.9551 515.952 82.9883 515.952 79.6387V78.6338C515.952 75.3161 515.521 72.3812 514.66 69.8291C513.799 67.277 512.491 65.2673 510.736 63.7998C508.982 62.3324 506.749 61.5986 504.037 61.5986C501.389 61.5986 499.188 62.3324 497.434 63.7998C495.679 65.2673 494.371 67.277 493.51 69.8291C492.68 72.3812 492.266 75.3161 492.266 78.6338V79.6387C492.266 82.9883 492.68 85.9551 493.51 88.5391C494.371 91.0911 495.679 93.1009 497.434 94.5684C499.22 96.0039 501.453 96.7217 504.133 96.7217ZM585.815 106.005C581.062 106.005 576.644 105.415 572.561 104.234C568.477 103.054 564.506 101.092 560.646 98.3486V82.3184H569.977L571.508 92.7021C573.199 93.9144 575.272 94.8874 577.729 95.6211C580.217 96.3548 582.912 96.7217 585.815 96.7217C588.655 96.7217 591.031 96.3229 592.945 95.5254C594.891 94.696 596.375 93.5475 597.396 92.0801C598.416 90.6126 598.927 88.874 598.927 86.8643C598.927 85.014 598.48 83.3711 597.587 81.9355C596.694 80.5 595.21 79.224 593.137 78.1074C591.063 76.959 588.256 75.9062 584.715 74.9492C579.515 73.5456 575.16 71.8867 571.651 69.9727C568.174 68.0586 565.542 65.7617 563.756 63.082C562.001 60.4023 561.124 57.2441 561.124 53.6074C561.124 49.875 562.129 46.5732 564.139 43.7021C566.18 40.8311 569.004 38.5661 572.608 36.9072C576.213 35.2484 580.376 34.403 585.098 34.3711C590.266 34.3073 594.827 34.9772 598.783 36.3809C602.771 37.7845 606.136 39.6188 608.88 41.8838V56.8613H599.74L598.018 47.0996C596.71 46.1745 595.003 45.3929 592.897 44.7549C590.824 44.085 588.368 43.75 585.528 43.75C583.104 43.75 580.966 44.1488 579.116 44.9463C577.266 45.7438 575.814 46.8763 574.762 48.3438C573.709 49.7793 573.183 51.502 573.183 53.5117C573.183 55.2663 573.645 56.7975 574.57 58.1055C575.495 59.4134 577.043 60.6097 579.212 61.6943C581.381 62.7471 584.316 63.8158 588.017 64.9004C595.577 66.9102 601.303 69.6855 605.195 73.2266C609.087 76.7676 611.033 81.2816 611.033 86.7686C611.033 90.6286 609.98 94.0101 607.875 96.9131C605.801 99.7842 602.867 102.017 599.07 103.612C595.306 105.207 590.888 106.005 585.815 106.005ZM634.815 106.005C629.552 106.005 625.452 104.649 622.518 101.938C619.583 99.2259 618.115 95.4935 618.115 90.7402C618.115 87.4863 619.008 84.6312 620.795 82.1748C622.581 79.7184 625.197 77.8044 628.643 76.4326C632.088 75.029 636.267 74.3271 641.18 74.3271H649.075V69.9727C649.075 67.2292 648.246 65.0439 646.587 63.417C644.96 61.79 642.583 60.9766 639.457 60.9766C637.671 60.9766 636.091 61.1999 634.72 61.6465C633.348 62.0612 632.12 62.6673 631.035 63.4648L629.935 70.4512H621.082L620.986 57.6748C623.538 56.016 626.378 54.708 629.504 53.751C632.63 52.762 636.107 52.2676 639.936 52.2676C646.507 52.2676 651.675 53.8148 655.439 56.9092C659.236 59.9717 661.134 64.374 661.134 70.1162V92.9414C661.134 93.6432 661.134 94.3291 661.134 94.999C661.166 95.6689 661.214 96.3229 661.277 96.9609L666.541 97.6309V105H650.798C650.479 103.883 650.176 102.799 649.889 101.746C649.633 100.693 649.442 99.6406 649.314 98.5879C647.592 100.757 645.502 102.544 643.046 103.947C640.621 105.319 637.878 106.005 634.815 106.005ZM637.543 96.6738C639.967 96.6738 642.232 96.1156 644.338 94.999C646.443 93.8506 648.022 92.415 649.075 90.6924V82.0312H641.036C637.431 82.0312 634.704 82.8766 632.854 84.5674C631.035 86.2262 630.126 88.1722 630.126 90.4053C630.126 92.415 630.764 93.9622 632.04 95.0469C633.316 96.1315 635.15 96.6738 637.543 96.6738ZM633.093 43.3672L642.328 30.3516H655.487L655.583 30.6387L642.52 43.3672H633.476H633.093ZM672.14 105V97.6309L679.317 96.1953V62.0771L671.757 60.6416V53.2246H690.419L691.041 60.7373C692.764 58.0576 694.901 55.984 697.453 54.5166C700.037 53.0173 702.956 52.2676 706.21 52.2676C711.537 52.2676 715.685 53.9105 718.651 57.1963C721.618 60.4502 723.102 65.5544 723.102 72.5088V96.1953L730.279 97.6309V105H704.296V97.6309L711.043 96.1953V72.6045C711.043 68.6807 710.261 65.9053 708.698 64.2783C707.135 62.6195 704.806 61.79 701.712 61.79C699.383 61.79 697.341 62.3164 695.587 63.3691C693.864 64.39 692.461 65.8255 691.376 67.6758V96.1953L697.932 97.6309V105H672.14ZM759.086 106.005C754.237 106.005 750.026 104.904 746.453 102.703C742.912 100.47 740.169 97.4076 738.223 93.5156C736.309 89.5918 735.352 85.0778 735.352 79.9736V78.2988C735.352 73.2904 736.309 68.8242 738.223 64.9004C740.137 60.9766 742.864 57.8981 746.405 55.665C749.978 53.4001 754.189 52.2676 759.038 52.2676C763.472 52.2676 767.332 52.9854 770.618 54.4209C773.904 55.8245 776.6 57.5791 778.705 59.6846L778.753 73.5137H769.565L767.795 64.374C766.902 63.4489 765.769 62.7152 764.397 62.1729C763.026 61.5986 761.526 61.3115 759.899 61.3115C757.252 61.3115 754.987 62.0293 753.104 63.4648C751.254 64.9004 749.835 66.8942 748.846 69.4463C747.889 71.9665 747.41 74.9173 747.41 78.2988V79.9736C747.41 83.6104 747.905 86.6729 748.894 89.1611C749.882 91.6494 751.254 93.5316 753.009 94.8076C754.795 96.0837 756.837 96.7217 759.134 96.7217C761.909 96.7217 764.158 95.972 765.881 94.4727C767.635 92.9733 768.784 90.8997 769.326 88.252H779.758L779.901 88.5391C779.519 91.9206 778.514 94.9352 776.887 97.583C775.292 100.199 773.027 102.257 770.092 103.756C767.189 105.255 763.52 106.005 759.086 106.005ZM785.691 105V97.6309L792.869 96.1953V39.2041L785.261 37.7686V30.3516H804.88V59.9238C806.571 57.4993 808.66 55.6172 811.148 54.2773C813.637 52.9375 816.444 52.2676 819.57 52.2676C824.898 52.2676 829.077 53.9743 832.107 57.3877C835.17 60.7692 836.701 66.001 836.701 73.083V96.1953L843.879 97.6309V105H817.896V97.6309L824.69 96.1953V72.9873C824.69 69.0316 823.893 66.1764 822.298 64.4219C820.703 62.6673 818.358 61.79 815.264 61.79C813.062 61.79 811.069 62.2845 809.282 63.2734C807.528 64.2305 806.06 65.5863 804.88 67.3408V96.1953L811.675 97.6309V105H785.691ZM872.829 106.005C867.948 106.005 863.689 104.92 860.053 102.751C856.448 100.55 853.641 97.5192 851.631 93.6592C849.653 89.7992 848.664 85.3809 848.664 80.4043V78.3945C848.664 73.3542 849.637 68.8721 851.583 64.9482C853.561 60.9925 856.272 57.8981 859.718 55.665C863.163 53.4001 867.087 52.2676 871.489 52.2676C876.179 52.2676 880.103 53.2087 883.261 55.0908C886.451 56.973 888.859 59.6527 890.486 63.1299C892.113 66.5752 892.927 70.7223 892.927 75.5713V82.4619H861.153L861.058 82.7012C861.185 85.4128 861.743 87.8213 862.732 89.9268C863.753 92.0322 865.189 93.6911 867.039 94.9033C868.921 96.1156 871.202 96.7217 873.882 96.7217C876.689 96.7217 879.241 96.3389 881.538 95.5732C883.835 94.8076 885.956 93.723 887.902 92.3193L891.683 99.8799C889.641 101.603 887.041 103.054 883.883 104.234C880.725 105.415 877.04 106.005 872.829 106.005ZM861.345 73.9922H881.395V72.748C881.395 70.4831 881.044 68.5052 880.342 66.8145C879.672 65.0918 878.603 63.752 877.136 62.7949C875.7 61.8379 873.866 61.3594 871.633 61.3594C869.687 61.3594 867.98 61.9017 866.513 62.9863C865.045 64.071 863.865 65.5544 862.972 67.4365C862.11 69.2868 861.52 71.3923 861.201 73.7529L861.345 73.9922ZM900.727 105V97.4395L928.193 61.9336H911.972L910.584 70.7383H901.636V53.2246H942.788V61.1201L916.087 96.1953H933.888L935.61 86.96H944.224V105H900.727Z" fill="#262626"/>
  <path d="M126.439 167L116.508 129.324L112.465 128.885V124.344H128.227V128.885L123.686 129.559L128.93 151.473L130.014 155.955L130.189 155.984L131.537 151.473L140.033 124.344H145.805L154.535 151.912L155.824 156.277H156L157.143 151.912L162.475 129.559L157.67 128.885V124.344H173.139V128.885L169.359 129.324L159.545 167H152.748L144.164 140.135L143.08 136.268H142.904L141.762 140.193L133.119 167H126.439ZM190.072 167.615C187.084 167.615 184.477 166.951 182.25 165.623C180.043 164.275 178.324 162.42 177.094 160.057C175.883 157.693 175.277 154.988 175.277 151.941V150.711C175.277 147.625 175.873 144.881 177.064 142.479C178.275 140.057 179.936 138.162 182.045 136.795C184.154 135.408 186.557 134.715 189.252 134.715C192.123 134.715 194.525 135.291 196.459 136.443C198.412 137.596 199.887 139.236 200.883 141.365C201.879 143.475 202.377 146.014 202.377 148.982V153.201H182.924L182.865 153.348C182.943 155.008 183.285 156.482 183.891 157.771C184.516 159.061 185.395 160.076 186.527 160.818C187.68 161.561 189.076 161.932 190.717 161.932C192.436 161.932 193.998 161.697 195.404 161.229C196.811 160.76 198.109 160.096 199.301 159.236L201.615 163.865C200.365 164.92 198.773 165.809 196.84 166.531C194.906 167.254 192.65 167.615 190.072 167.615ZM183.041 148.016H195.316V147.254C195.316 145.867 195.102 144.656 194.672 143.621C194.262 142.566 193.607 141.746 192.709 141.16C191.83 140.574 190.707 140.281 189.34 140.281C188.148 140.281 187.104 140.613 186.205 141.277C185.307 141.941 184.584 142.85 184.037 144.002C183.51 145.135 183.148 146.424 182.953 147.869L183.041 148.016ZM224.379 167.615C222.387 167.615 220.668 167.225 219.223 166.443C217.777 165.662 216.566 164.529 215.59 163.045L215.004 167H208.646V126.717L203.988 125.838V121.297H216V138.846C216.957 137.498 218.129 136.473 219.516 135.77C220.922 135.066 222.553 134.715 224.408 134.715C227.006 134.715 229.203 135.418 231 136.824C232.816 138.211 234.203 140.164 235.16 142.684C236.117 145.203 236.596 148.162 236.596 151.561V152.176C236.596 155.262 236.117 157.967 235.16 160.291C234.203 162.615 232.816 164.422 231 165.711C229.184 166.98 226.977 167.615 224.379 167.615ZM222.27 161.785C224.691 161.785 226.449 160.936 227.543 159.236C228.656 157.518 229.213 155.164 229.213 152.176V151.561C229.213 149.334 228.969 147.4 228.48 145.76C227.992 144.1 227.24 142.82 226.225 141.922C225.209 141.004 223.9 140.545 222.299 140.545C220.814 140.545 219.545 140.906 218.49 141.629C217.455 142.332 216.625 143.289 216 144.5V158.035C216.645 159.227 217.484 160.154 218.52 160.818C219.574 161.463 220.824 161.785 222.27 161.785ZM242.719 167V160.174H250.072V167H242.719ZM267.973 167.615C265.414 167.615 263.227 166.971 261.41 165.682C259.594 164.393 258.197 162.596 257.221 160.291C256.264 157.967 255.785 155.262 255.785 152.176V151.561C255.785 148.182 256.264 145.232 257.221 142.713C258.197 140.193 259.594 138.23 261.41 136.824C263.246 135.418 265.424 134.715 267.943 134.715C269.76 134.715 271.342 135.066 272.689 135.77C274.057 136.453 275.229 137.439 276.205 138.729V126.717L271.547 125.838V121.297H276.205H283.588V161.609L287.982 162.488V167H277.201L276.615 163.162C275.619 164.627 274.398 165.74 272.953 166.502C271.527 167.244 269.867 167.615 267.973 167.615ZM270.053 161.785C271.459 161.785 272.67 161.482 273.686 160.877C274.701 160.252 275.541 159.354 276.205 158.182V144.207C275.561 143.074 274.721 142.186 273.686 141.541C272.67 140.877 271.479 140.545 270.111 140.545C268.51 140.545 267.191 141.014 266.156 141.951C265.141 142.869 264.389 144.158 263.9 145.818C263.412 147.459 263.168 149.373 263.168 151.561V152.176C263.168 155.105 263.705 157.439 264.779 159.178C265.873 160.916 267.631 161.785 270.053 161.785ZM305.971 167.615C302.982 167.615 300.375 166.951 298.148 165.623C295.941 164.275 294.223 162.42 292.992 160.057C291.781 157.693 291.176 154.988 291.176 151.941V150.711C291.176 147.625 291.771 144.881 292.963 142.479C294.174 140.057 295.834 138.162 297.943 136.795C300.053 135.408 302.455 134.715 305.15 134.715C308.021 134.715 310.424 135.291 312.357 136.443C314.311 137.596 315.785 139.236 316.781 141.365C317.777 143.475 318.275 146.014 318.275 148.982V153.201H298.822L298.764 153.348C298.842 155.008 299.184 156.482 299.789 157.771C300.414 159.061 301.293 160.076 302.426 160.818C303.578 161.561 304.975 161.932 306.615 161.932C308.334 161.932 309.896 161.697 311.303 161.229C312.709 160.76 314.008 160.096 315.199 159.236L317.514 163.865C316.264 164.92 314.672 165.809 312.738 166.531C310.805 167.254 308.549 167.615 305.971 167.615ZM298.939 148.016H311.215V147.254C311.215 145.867 311 144.656 310.57 143.621C310.16 142.566 309.506 141.746 308.607 141.16C307.729 140.574 306.605 140.281 305.238 140.281C304.047 140.281 303.002 140.613 302.104 141.277C301.205 141.941 300.482 142.85 299.936 144.002C299.408 145.135 299.047 146.424 298.852 147.869L298.939 148.016ZM334.125 167L323.842 140.34L320.473 139.842V135.301H334.975V139.842L331.312 140.428L337.025 156.336L337.787 158.855H337.963L338.842 156.336L344.613 140.428L340.6 139.842V135.301H355.072V139.842L351.615 140.369L341.303 167H334.125Z" fill="#262626"/>
  <path d="M99 150.5C99 160.165 91.165 168 81.5 168C71.835 168 64 160.165 64 150.5C64 140.835 71.835 133 81.5 133C91.165 133 99 140.835 99 150.5Z" fill="#262626"/>
</svg>
